<svg id="Icon_feather-file-text" data-name="Icon feather-file-text" xmlns="http://www.w3.org/2000/svg" width="20.557" height="25.791" viewBox="0 0 20.557 25.791">
  <path id="Path_365579" data-name="Path 365579" d="M8.163,2h9.488a.783.783,0,0,1,.559.236L25.326,9.49a.814.814,0,0,1,.232.57V24.567a3.2,3.2,0,0,1-3.163,3.224H8.163A3.2,3.2,0,0,1,5,24.567V5.224A3.2,3.2,0,0,1,8.163,2Zm9.16,1.612H8.163A1.6,1.6,0,0,0,6.581,5.224V24.567a1.6,1.6,0,0,0,1.581,1.612H22.395a1.6,1.6,0,0,0,1.581-1.612V10.393Z" transform="translate(-5 -2)" fill="#0052c8"/>
  <path id="Path_365580" data-name="Path 365580" d="M27.907,10.866H20.791A.8.8,0,0,1,20,10.06V2.806a.791.791,0,1,1,1.581,0V9.254h6.325a.806.806,0,0,1,0,1.612Z" transform="translate(-8.14 -2)" fill="#0052c8"/>
  <path id="Path_365581" data-name="Path 365581" d="M21.279,20.112H11.791a.806.806,0,0,1,0-1.612h9.488a.806.806,0,0,1,0,1.612Z" transform="translate(-6.256 -5.202)" fill="#0052c8"/>
  <path id="Path_365582" data-name="Path 365582" d="M21.279,26.112H11.791a.806.806,0,0,1,0-1.612h9.488a.806.806,0,0,1,0,1.612Z" transform="translate(-6.256 -6.366)" fill="#0052c8"/>
  <path id="Path_365583" data-name="Path 365583" d="M14.163,14.112H11.791a.806.806,0,0,1,0-1.612h2.372a.806.806,0,0,1,0,1.612Z" transform="translate(-6.256 -4.037)" fill="#0052c8"/>
</svg>
