<svg id="Notification" xmlns="http://www.w3.org/2000/svg" width="40" height="40" viewBox="0 0 40 40">
  <rect id="Rectangle_2829" data-name="Rectangle 2829" width="40" height="40" rx="6" fill="#f5f5f5"/>
  <g id="Group_9916" data-name="Group 9916" transform="translate(11.681 7.754)">
    <path id="Icon_material-notifications" data-name="Icon material-notifications" d="M14.461,24.374a2.122,2.122,0,0,0,2.115-2.115H12.346A2.115,2.115,0,0,0,14.461,24.374Zm6.346-6.346V12.74c0-3.247-1.735-5.965-4.759-6.684V5.336a1.586,1.586,0,1,0-3.173,0v.719c-3.035.719-4.759,3.427-4.759,6.684v5.288L6,20.144V21.2H22.923V20.144Z" transform="translate(-6 -3.75)" fill="#696969"/>
    <g id="Ellipse_23" data-name="Ellipse 23" transform="translate(8.319 1.246)" fill="#dc0500" stroke="#fff" stroke-width="1">
      <circle cx="4.5" cy="4.5" r="4.5" stroke="none"/>
      <circle cx="4.5" cy="4.5" r="4" fill="none"/>
    </g>
  </g>
</svg>
